<?xml version="1.0" standalone="no"?>
<!DOCTYPE svg PUBLIC "-//W3C//DTD SVG 20010904//EN"
 "http://www.w3.org/TR/2001/REC-SVG-20010904/DTD/svg10.dtd">
<svg version="1.0" xmlns="http://www.w3.org/2000/svg"
 width="1280.000000pt" height="979.000000pt" viewBox="0 0 1280.000000 979.000000"
 preserveAspectRatio="xMidYMid meet">
<metadata>
Created by potrace 1.15, written by Peter Selinger 2001-2017
</metadata>
<g transform="translate(0.000000,979.000000) scale(0.100000,-0.100000)"
fill="#000000" stroke="none">
<path d="M3993 9776 c-82 -19 -157 -61 -194 -107 -16 -21 -70 -115 -121 -211
-50 -95 -175 -333 -278 -528 -289 -547 -383 -744 -517 -1084 -126 -320 -150
-401 -203 -697 -6 -30 -10 -74 -10 -97 0 -41 57 -215 69 -210 3 2 58 28 121
60 63 31 189 84 280 118 91 35 210 81 265 102 202 81 166 76 295 34 63 -21
121 -42 128 -48 21 -18 14 -49 -48 -219 -79 -215 -110 -279 -162 -336 -24 -27
-70 -79 -103 -117 -63 -73 -102 -96 -162 -96 -21 0 -130 -9 -243 -21 -204 -22
-280 -21 -379 7 -24 7 -24 7 -19 -57 9 -106 76 -219 131 -219 21 0 83 -32 112
-57 37 -32 197 -226 232 -281 56 -87 114 -240 115 -302 0 -35 -69 -212 -161
-414 -34 -73 -44 -87 -59 -81 -60 25 -105 27 -409 16 -410 -14 -597 -35 -921
-102 -234 -49 -375 -93 -517 -163 -154 -76 -186 -98 -167 -118 10 -10 69 -13
263 -13 137 0 249 -1 249 -2 0 -1 -30 -11 -67 -23 -90 -29 -286 -125 -398
-195 -266 -167 -524 -412 -683 -648 -209 -309 -358 -710 -413 -1107 -17 -123
-18 -515 -1 -640 77 -568 271 -985 626 -1345 115 -116 283 -255 379 -313 69
-42 315 -155 398 -182 208 -70 522 -95 874 -70 180 13 263 30 427 86 229 78
437 188 613 323 356 272 707 817 825 1280 50 200 90 520 90 734 l0 147 28 -7
c37 -9 119 -10 128 -1 11 12 -23 236 -57 366 -24 95 -28 129 -23 179 8 76 -7
124 -87 287 -33 65 -59 131 -59 146 0 38 -61 154 -117 224 -71 87 -69 84 -57
104 16 25 169 84 234 90 38 3 64 12 83 28 29 24 36 26 137 29 30 1 74 5 97 9
37 7 43 5 58 -17 15 -24 15 -28 -6 -68 -41 -81 -60 -153 -66 -253 -6 -92 -8
-101 -37 -134 -31 -35 -31 -36 -29 -141 1 -58 9 -152 17 -208 23 -150 21 -319
-4 -378 -23 -55 -26 -125 -6 -164 8 -15 40 -47 71 -70 57 -43 95 -92 95 -122
0 -9 18 -29 41 -45 22 -15 62 -51 87 -80 26 -28 102 -98 170 -155 68 -57 167
-141 220 -186 53 -46 111 -90 129 -98 18 -9 124 -26 240 -40 419 -48 479 -56
541 -67 48 -9 142 -9 405 0 188 7 476 15 640 19 l299 6 41 28 c48 33 57 35 57
14 0 -8 11 -25 25 -39 19 -19 25 -35 25 -71 0 -54 25 -85 70 -85 23 0 31 5 36
25 4 15 16 28 30 31 22 6 24 11 24 76 0 61 2 69 16 64 10 -4 25 1 35 10 10 9
23 13 30 8 7 -4 68 -9 136 -10 l124 -3 74 40 c86 45 117 48 224 20 80 -21 94
-19 175 23 47 25 57 26 203 26 l153 0 10 25 c5 14 14 25 20 25 16 0 38 -42 45
-85 11 -63 84 -271 130 -372 203 -437 542 -774 940 -932 152 -60 330 -91 528
-91 464 0 844 154 1148 467 157 162 289 352 400 578 160 326 213 571 213 985
0 213 -3 261 -22 365 -94 496 -329 922 -662 1200 -274 228 -549 339 -903 364
-65 5 -123 13 -129 19 -28 28 41 92 101 92 27 0 34 6 54 48 13 26 32 61 44 77
16 22 22 51 26 110 3 44 12 97 21 117 15 35 14 50 -11 236 -14 110 -23 207
-20 216 5 11 19 16 52 16 75 0 114 26 298 196 62 57 119 104 127 104 20 0 113
-101 134 -145 22 -45 16 -62 -26 -73 -21 -6 -33 -15 -32 -25 2 -21 145 -224
187 -265 18 -17 77 -55 132 -85 106 -56 123 -73 233 -228 29 -41 77 -105 108
-144 36 -46 56 -83 61 -109 4 -24 16 -47 32 -60 53 -43 100 -99 205 -246 59
-83 120 -158 134 -168 32 -21 141 -23 166 -3 22 18 20 48 -8 133 -80 240 -82
249 -61 265 16 11 38 13 102 8 99 -8 128 3 118 43 -3 15 -59 160 -124 322 -65
162 -126 319 -136 348 -26 81 -53 106 -159 147 -52 20 -101 44 -110 54 -11 12
-16 37 -16 78 0 47 -4 64 -20 78 -22 20 -27 60 -8 71 6 4 41 12 77 18 l66 11
3 54 c2 30 -2 59 -7 64 -6 6 -40 14 -75 18 -55 5 -77 14 -154 63 -105 67 -133
93 -113 105 8 5 36 12 64 15 89 12 126 42 107 90 -6 18 -21 27 -62 36 -49 12
-258 18 -303 9 -17 -3 -20 1 -19 27 2 38 94 180 124 189 18 6 20 15 20 85 0
77 1 79 33 104 47 36 177 96 209 96 34 0 36 -4 46 -80 8 -55 21 -79 44 -80 18
0 25 40 17 100 -7 57 -6 68 12 92 l19 27 -31 51 c-19 32 -40 52 -56 56 -14 4
-81 -1 -149 -11 -104 -14 -132 -15 -173 -4 -62 16 -212 0 -391 -41 -213 -50
-422 -79 -810 -115 -226 -21 -346 -43 -610 -111 -118 -31 -284 -73 -369 -95
-182 -45 -227 -66 -264 -119 -29 -44 -55 -58 -163 -90 -97 -30 -143 -58 -177
-107 -24 -37 -32 -42 -62 -41 -36 1 -140 -64 -355 -223 -147 -108 -156 -112
-293 -117 -119 -5 -326 10 -427 29 -30 6 -88 27 -129 46 -67 32 -99 59 -331
287 -141 138 -283 276 -316 306 -33 30 -102 114 -153 185 -177 246 -406 518
-477 567 -22 15 -71 35 -109 44 -39 8 -99 25 -135 36 -88 27 -282 43 -535 43
-228 0 -268 -7 -345 -55 -25 -15 -72 -33 -105 -40 -77 -15 -139 -42 -181 -80
-19 -16 -38 -30 -42 -30 -17 0 -72 41 -72 54 0 26 70 76 132 93 56 16 62 20
79 60 10 24 23 43 30 43 15 0 173 80 250 128 l64 39 120 -1 c110 -1 124 -4
167 -28 91 -51 107 -52 213 -23 l97 26 43 -40 c59 -54 75 -58 235 -53 l75 2
19 45 c17 43 17 47 1 71 -31 47 -15 58 78 50 45 -3 163 -13 262 -21 99 -8 218
-18 265 -21 l85 -6 64 44 c76 52 101 92 101 166 0 65 -11 89 -48 97 -15 3
-159 10 -319 14 -233 7 -297 12 -324 25 -62 29 -147 106 -163 147 -11 28 -22
39 -36 39 -11 0 -42 11 -68 24 -69 35 -112 44 -254 55 -70 5 -140 16 -155 23
-26 13 -28 17 -25 68 5 89 50 170 156 276 50 50 119 108 153 130 34 21 89 56
123 78 l60 39 38 -27 c64 -44 135 -38 326 29 179 63 191 68 228 103 33 30 52
85 73 207 24 141 21 175 -17 219 -43 50 -93 59 -242 46 -259 -23 -337 -37
-384 -68 -25 -17 -111 -141 -151 -221 -16 -30 -22 -57 -20 -92 3 -43 -1 -53
-28 -82 -52 -54 -133 -179 -133 -205 0 -17 -31 -56 -109 -136 -59 -61 -115
-125 -124 -142 -9 -17 -21 -62 -28 -100 -16 -97 -51 -164 -113 -221 -29 -27
-65 -67 -80 -90 -15 -23 -39 -46 -54 -51 -15 -6 -77 -12 -139 -15 -134 -4
-163 -17 -163 -73 0 -71 -30 -90 -92 -58 -26 13 -40 14 -87 5 -96 -18 -263
-24 -296 -11 -16 6 -68 18 -114 25 -56 9 -91 21 -105 34 -13 13 -33 20 -51 18
l-30 -2 4 72 3 72 -33 5 c-19 3 -56 7 -83 10 -70 8 -74 14 -64 88 12 80 5 127
-27 205 -26 66 -31 122 -15 188 6 22 14 96 19 165 7 113 11 130 35 167 39 59
53 113 82 327 33 237 36 358 11 403 -41 75 -123 133 -237 167 -77 24 -277 30
-357 12z m352 -71 c73 -20 124 -52 162 -101 27 -36 28 -41 27 -148 -1 -95 -49
-449 -70 -518 -8 -27 -22 -21 -29 12 -8 37 -39 60 -83 60 -43 0 -85 -22 -147
-77 -46 -42 -51 -44 -92 -38 -77 11 -135 -14 -280 -125 -130 -98 -133 -100
-186 -100 -30 0 -75 -6 -100 -14 -25 -7 -48 -12 -51 -9 -2 3 0 17 5 32 18 51
-27 121 -77 121 l-26 0 30 53 c37 66 177 330 316 599 118 227 124 234 227 263
70 19 288 14 374 -10z m-303 -1055 c21 -6 43 -20 49 -31 14 -27 -7 -50 -81
-90 -31 -16 -91 -63 -133 -104 -74 -72 -79 -75 -125 -75 -27 0 -52 3 -55 6 -4
4 7 22 23 41 17 18 30 45 30 59 0 18 23 48 83 108 45 46 92 86 102 89 34 8 69
7 107 -3z m-382 -79 c0 -8 -81 -149 -147 -255 -10 -16 -29 -33 -43 -37 -22 -6
-67 -19 -149 -44 -22 -7 -23 -5 -17 21 4 15 29 73 55 129 46 98 50 102 106
134 33 19 75 39 95 47 41 15 100 18 100 5z m663 -142 c74 -86 108 -292 60
-358 -13 -16 -23 -42 -23 -57 l0 -27 -79 6 c-84 7 -151 28 -151 48 0 14 73
278 102 367 24 75 41 80 91 21z m955 -749 c16 -26 34 -25 81 2 33 19 41 20 55
9 9 -7 16 -18 16 -23 0 -16 -140 -77 -158 -69 -10 4 -37 17 -62 28 -31 14 -70
22 -124 25 l-80 3 -27 -40 c-15 -22 -33 -40 -41 -40 -16 0 -22 36 -13 81 l6
33 127 4 c70 1 145 4 167 5 31 1 43 -3 53 -18z m678 -805 c3 -14 4 -34 1 -45
-3 -12 1 -24 11 -30 15 -8 13 -12 -13 -34 -16 -14 -41 -25 -55 -26 -14 0 -40
-4 -58 -9 -42 -13 -62 -5 -62 24 0 29 39 61 91 75 22 6 39 17 39 24 0 15 -36
11 -46 -5 -8 -14 -46 -11 -42 4 6 17 68 47 100 47 21 0 29 -6 34 -25z m-366
-49 c0 -15 -21 -26 -51 -26 -24 0 -25 16 -1 29 25 15 52 13 52 -3z m171 -6
c-13 -11 -32 -20 -43 -20 -20 0 -68 -42 -68 -60 0 -8 13 -10 39 -5 44 7 65
-10 38 -30 -23 -16 -122 -39 -141 -32 -13 5 -13 12 6 54 35 81 76 111 153 112
l40 0 -24 -19z m-651 -14 c0 -8 -9 -44 -21 -81 -11 -37 -18 -69 -15 -72 10
-11 75 19 81 37 3 11 18 28 33 38 35 25 166 72 199 72 41 0 10 -27 -51 -45
-60 -18 -83 -31 -73 -41 4 -4 42 3 85 15 128 39 203 54 213 44 16 -16 -24
-106 -54 -123 -21 -12 -29 -12 -39 -2 -9 9 -8 19 6 48 l17 37 -30 -6 c-50 -10
-79 -36 -97 -85 -20 -53 -29 -62 -63 -62 -18 0 -22 4 -16 18 24 57 28 72 23
78 -12 11 -69 -8 -75 -24 -24 -74 -65 -144 -95 -162 -18 -11 -36 -20 -40 -20
-16 0 -7 46 17 99 14 30 23 56 20 59 -2 3 -19 1 -37 -4 -31 -9 -33 -13 -36
-57 l-3 -47 -62 -19 c-34 -10 -66 -17 -71 -14 -8 5 -4 42 10 77 7 17 4 18 -32
12 -83 -16 -192 -107 -165 -140 15 -18 8 -23 -115 -81 -171 -79 -165 -65 72
176 116 118 214 222 217 231 4 10 32 25 69 37 76 24 128 27 128 7z m1168 -167
c122 -61 178 -95 215 -130 50 -48 50 -48 44 -98 -9 -74 -164 -456 -272 -671
-23 -46 -33 -78 -30 -93 6 -22 -75 -210 -96 -222 -23 -15 -49 13 -116 127 -40
68 -99 165 -132 217 -34 52 -61 104 -61 116 0 12 11 77 25 145 26 129 31 209
15 239 -20 38 -85 52 -290 62 -107 6 -217 13 -245 17 -48 7 -50 8 -47 37 2 17
17 53 32 80 l29 51 293 97 c365 121 352 117 416 112 42 -3 89 -21 220 -86z
m-1043 -251 c-4 -24 -8 -56 -8 -73 -2 -25 -6 -30 -27 -30 -26 0 -27 4 -14 64
l7 33 -31 -16 c-20 -10 -39 -34 -56 -70 -25 -52 -53 -75 -76 -61 -10 6 31 127
51 152 6 7 23 13 38 13 14 1 37 7 51 15 14 8 36 14 49 15 22 0 23 -2 16 -42z
m-182 25 c13 -12 -15 -33 -44 -33 -35 0 -38 17 -6 30 27 11 42 12 50 3z m-138
-22 c-11 -11 -81 -43 -155 -73 l-135 -54 -57 -114 c-33 -67 -69 -126 -87 -140
-38 -32 -179 -105 -187 -97 -9 8 20 62 94 179 34 53 62 99 62 102 0 3 -25 -4
-55 -16 -45 -17 -60 -19 -80 -10 -33 15 -32 37 3 50 71 28 579 190 597 191 19
1 19 1 0 -18z m105 -44 c0 -35 -35 -109 -62 -132 -33 -28 -68 -33 -68 -9 0 18
67 136 84 146 18 12 46 9 46 -5z m-120 -33 c0 -10 -23 -49 -51 -84 -15 -19
-30 -44 -33 -56 -6 -21 -44 -44 -72 -44 -12 0 -14 7 -9 33 l6 32 -20 -25 c-11
-14 -30 -37 -41 -52 -13 -17 -31 -28 -46 -28 -13 0 -24 2 -24 6 0 28 34 145
45 154 18 15 35 4 36 -23 0 -21 0 -21 17 3 30 44 60 70 82 70 14 0 20 -7 20
-22 0 -21 2 -20 26 10 22 27 64 45 64 26z m6574 -27 c15 -41 -7 -167 -39 -234
-31 -63 -196 -240 -318 -340 l-67 -55 -93 7 -92 7 -100 -104 c-54 -57 -190
-193 -301 -303 -113 -112 -217 -225 -238 -257 -62 -98 -43 -95 -358 -53 -150
20 -320 39 -376 42 -74 4 -105 10 -109 20 -12 31 50 122 169 248 153 162 246
245 321 287 83 47 108 68 105 87 -2 11 -14 16 -38 16 -29 0 -34 3 -32 20 5 28
28 43 79 51 28 4 57 17 77 35 18 15 77 45 132 67 54 22 128 54 164 71 63 30
69 31 186 29 l121 -1 91 44 c61 29 90 48 87 57 -3 7 1 28 9 46 15 36 13 35
251 145 74 34 124 51 150 51 22 0 63 11 90 25 67 32 116 30 129 -8z m-5899
-32 c44 -8 100 -17 125 -20 25 -3 60 -14 76 -24 l31 -19 -28 -189 c-15 -103
-64 -413 -108 -688 -44 -275 -87 -549 -96 -609 -17 -108 -27 -134 -79 -193
-46 -54 -46 -40 -2 447 19 206 47 538 62 738 l28 362 -21 28 c-29 39 -87 69
-172 88 -89 20 -146 15 -294 -27 -159 -45 -175 -31 -22 18 330 108 363 114
500 88z m1450 -619 c28 -13 75 -43 105 -68 108 -88 636 -471 676 -490 l40 -20
65 25 c87 35 114 40 137 28 17 -9 86 -103 166 -227 42 -64 30 -83 -73 -123
-89 -34 -169 -41 -224 -17 -18 7 -70 42 -117 76 -208 156 -774 540 -808 550
-51 14 -62 13 -102 -8 -19 -10 -98 -51 -175 -91 -77 -41 -172 -91 -211 -112
-78 -43 -104 -47 -128 -23 -29 28 -20 90 27 177 56 107 87 136 193 182 49 21
144 66 211 101 67 35 133 64 145 64 13 0 46 -11 73 -24z m-3525 -101 c8 -9 10
-29 7 -50 -4 -26 -2 -35 11 -40 9 -3 30 -26 46 -51 34 -54 43 -25 -102 -329
-106 -221 -128 -255 -161 -255 -32 0 -111 81 -111 114 0 36 200 547 236 604
17 25 55 29 74 7z m775 -68 c22 -33 18 -43 -219 -577 -260 -587 -233 -535
-276 -535 -31 0 -35 3 -38 29 -2 16 4 49 13 73 16 42 16 45 0 63 -13 15 -16
30 -12 61 4 29 1 46 -9 56 -25 26 -15 62 70 246 46 100 102 225 125 277 66
151 92 194 121 198 13 2 35 15 47 28 14 15 33 24 53 24 18 0 30 5 30 14 0 19
46 66 64 66 9 0 22 -10 31 -23z m-715 -728 c32 -89 41 -128 37 -155 -8 -47
-53 -144 -67 -144 -35 0 -84 38 -130 102 -29 39 -54 76 -56 83 -7 17 113 242
134 255 24 13 33 -3 82 -141z m2688 -91 c11 -29 25 -84 31 -122 7 -37 19 -79
28 -92 11 -18 14 -37 9 -70 -5 -40 -2 -50 19 -76 27 -32 30 -49 15 -78 -8 -14
1 -49 35 -147 50 -141 55 -177 26 -193 -33 -17 -79 -12 -100 12 l-21 21 -102
-43 c-57 -24 -124 -53 -149 -66 l-45 -23 4 -58 c6 -79 -4 -86 -109 -81 -77 3
-82 5 -110 36 -42 47 -39 91 11 167 48 72 64 123 50 159 -13 34 -5 50 34 71
27 15 38 31 62 98 24 67 35 83 67 104 47 29 60 63 52 128 -5 41 -2 58 18 95
14 25 41 77 62 115 45 86 53 95 76 95 12 0 23 -16 37 -52z m-4103 -638 c25
-10 27 -13 23 -63 -4 -43 -42 -244 -109 -575 -14 -71 -37 -83 -90 -48 -47 32
-91 33 -177 6 -35 -11 -76 -20 -92 -20 -22 0 -36 -10 -64 -50 -39 -54 -66 -71
-141 -89 -27 -7 -73 -27 -101 -46 -75 -52 -111 -107 -134 -205 -16 -69 -26
-84 -83 -120 -45 -28 -46 -31 -86 -154 -23 -69 -41 -133 -41 -142 0 -9 9 -47
21 -85 l21 -68 -26 -57 c-35 -77 -34 -129 5 -277 6 -23 32 -62 65 -98 30 -32
54 -67 55 -76 0 -10 0 -38 -1 -63 -2 -60 8 -83 69 -159 65 -81 72 -86 162
-110 79 -21 119 -53 119 -94 0 -46 29 -62 153 -88 78 -16 101 -17 159 -7 l67
12 46 -33 c26 -19 67 -40 92 -47 69 -21 173 -18 234 6 l52 21 54 -27 54 -28
92 24 c119 30 136 39 187 100 49 58 85 80 133 80 62 0 158 92 215 206 43 86
106 126 183 116 53 -6 76 10 84 59 4 23 20 55 37 75 29 33 30 36 23 104 l-7
70 36 15 c69 29 151 13 163 -33 3 -13 -5 -65 -17 -115 -85 -344 -257 -661
-487 -898 -177 -182 -355 -295 -580 -368 -703 -229 -1372 76 -1698 773 -56
120 -118 303 -146 437 -19 87 -23 136 -23 304 -2 379 54 638 200 931 146 294
330 511 568 669 207 137 357 197 576 229 122 18 124 18 155 6z m4489 -185 c7
-19 -7 -57 -28 -74 -9 -7 -16 -28 -16 -45 0 -20 -15 -58 -38 -97 -22 -35 -57
-96 -80 -135 -23 -39 -60 -87 -84 -108 -90 -78 -96 -85 -108 -138 -24 -104
-94 -198 -147 -198 -11 0 -38 14 -59 31 -36 28 -43 30 -94 24 -109 -13 -146
31 -138 161 6 89 42 159 113 219 27 23 138 98 245 165 107 67 216 136 241 152
85 54 180 75 193 43z m4256 -69 c106 -43 170 -81 248 -148 54 -46 102 -104
102 -121 0 -12 -204 -3 -526 23 -132 11 -296 20 -366 20 -139 0 -158 4 -158
30 0 21 89 104 139 130 157 79 265 110 376 107 78 -2 102 -8 185 -41z m-3898
-286 c24 -11 60 -34 80 -50 81 -67 188 -240 188 -306 0 -16 11 -45 25 -64 31
-42 32 -76 4 -107 -13 -13 -25 -44 -30 -74 -5 -29 -24 -85 -43 -126 -46 -97
-117 -166 -221 -218 -76 -38 -84 -40 -175 -40 -85 0 -101 3 -154 30 -65 33
-133 95 -186 169 -26 37 -45 53 -75 62 -22 6 -66 19 -97 28 -65 19 -98 52 -98
100 0 49 32 89 118 151 84 60 91 69 117 155 45 149 185 278 335 310 64 13 161
4 212 -20z m4247 -482 c84 -42 161 -114 161 -152 0 -59 -38 -87 -61 -43 -29
57 -96 131 -145 163 -53 34 -71 64 -38 64 9 0 46 -15 83 -32z m-9644 -111 c8
-12 15 -33 15 -47 0 -37 -37 -90 -70 -103 -34 -13 -62 -69 -85 -174 -28 -121
-43 -143 -100 -143 -47 0 -65 17 -65 61 0 113 146 391 222 423 37 16 64 10 83
-17z m1932 -63 c43 -12 57 -197 24 -326 -31 -121 -74 -212 -100 -216 -40 -6
-43 12 -12 69 22 41 27 59 19 73 -7 12 -4 32 9 68 l18 50 -24 19 c-15 13 -39
19 -70 19 -53 0 -117 16 -127 31 -9 15 30 53 89 84 61 32 97 63 97 82 0 14 35
53 48 53 4 0 17 -3 29 -6z m-1651 -136 c-8 -52 -57 -148 -75 -148 -26 0 -51
32 -51 65 0 19 12 50 29 75 54 81 109 85 97 8z m9615 -95 c13 -41 7 -181 -12
-247 -12 -43 -62 -100 -82 -94 -21 7 -19 55 4 105 17 36 23 72 26 148 5 119 7
125 32 125 14 0 23 -11 32 -37z m-5442 -146 c32 -80 81 -246 81 -278 0 -33
-25 -45 -54 -25 -12 9 -84 68 -161 133 -180 152 -181 157 -40 195 147 39 148
38 174 -25z m328 -60 c43 -24 103 -88 103 -111 0 -12 -10 -32 -22 -43 -29 -26
-89 -63 -104 -63 -27 0 -82 198 -61 219 15 15 57 13 84 -2z m2484 -43 c50 -14
58 -20 63 -46 16 -80 19 -78 -105 -78 -162 0 -186 23 -104 99 50 46 64 48 146
25z m-7455 -116 c7 -5 15 -37 19 -72 9 -87 63 -240 108 -305 20 -29 37 -62 37
-72 0 -25 -43 -52 -69 -44 -65 20 -179 221 -208 366 -16 81 -16 88 0 112 22
34 79 42 113 15z m5270 -78 c53 -37 69 -63 50 -79 -15 -13 -186 -27 -210 -18
-15 6 -15 9 -2 36 18 33 84 91 104 91 7 0 33 -14 58 -30z m4602 -43 c5 -26
-15 -70 -38 -85 -25 -15 -159 -44 -171 -36 -21 13 -5 32 45 53 30 12 71 37 92
56 42 37 67 41 72 12z m-1175 -178 c12 -7 37 -25 56 -42 90 -78 189 -88 332
-32 127 49 173 48 234 -5 51 -44 79 -54 221 -75 113 -17 154 -13 187 20 12 13
36 27 52 31 17 4 51 17 77 30 61 31 78 31 78 0 0 -52 -195 -315 -303 -409
-258 -225 -511 -244 -794 -57 -50 32 -117 85 -149 117 -74 73 -167 211 -188
280 -8 25 34 78 98 125 42 30 65 34 99 17z m-7198 -99 c17 -27 -76 -130 -119
-130 -45 0 -80 74 -57 119 10 19 20 21 91 21 43 0 82 -4 85 -10z"/>
<path d="M5853 6795 c-44 -19 -44 -40 -1 -31 39 8 56 22 43 35 -6 6 -22 4 -42
-4z"/>
<path d="M4910 6683 c-41 -40 -71 -75 -68 -78 7 -7 99 15 114 27 15 11 38 92
31 110 -3 8 -31 -13 -77 -59z"/>
<path d="M6225 6528 c-40 -14 -92 -64 -117 -112 -58 -113 41 -255 178 -256
103 0 168 81 162 201 -3 54 -9 73 -31 103 -46 60 -128 88 -192 64z"/>
<path d="M11066 6135 c-70 -29 -130 -56 -133 -59 -9 -9 51 -55 95 -72 40 -16
47 -16 95 -1 29 9 74 30 100 47 60 38 65 75 14 114 -19 15 -36 26 -38 26 -2 0
-62 -25 -133 -55z"/>
<path d="M10334 5831 c-33 -16 -83 -36 -111 -45 -28 -9 -59 -23 -69 -30 -18
-14 -18 -16 12 -53 38 -47 99 -83 139 -82 47 1 219 90 223 115 4 26 -86 124
-114 124 -10 -1 -46 -14 -80 -29z"/>
<path d="M3255 6995 c-162 -50 -346 -119 -400 -151 -65 -38 -107 -124 -113
-234 -5 -87 2 -105 69 -190 l41 -53 67 6 c120 10 305 38 336 51 52 22 90 62
168 178 85 128 97 161 97 271 0 90 -7 107 -54 136 -45 28 -82 26 -211 -14z
m73 -95 c57 0 86 -28 77 -73 -10 -45 -81 -180 -110 -207 -66 -62 -145 10 -145
133 0 97 51 164 115 151 11 -2 39 -4 63 -4z"/>
<path d="M2584 6925 c-39 -95 10 -525 64 -559 20 -12 24 36 23 250 l0 213 -30
65 c-16 36 -33 66 -36 66 -3 0 -13 -16 -21 -35z"/>
</g>
</svg>
