<svg width="21" height="16" viewBox="0 0 21 16" fill="none" xmlns="http://www.w3.org/2000/svg">
<path d="M19.1545 0H1.84595C1.56183 0 1.29584 0.0698668 1.05521 0.185026L10.4592 9.59134L12.567 7.56521C12.567 7.56521 12.5671 7.56501 12.5672 7.56492C12.5672 7.56484 12.5674 7.56476 12.5674 7.56476L19.9456 0.18519C19.7049 0.0699487 19.4387 0 19.1545 0Z" fill="black"/>
<path d="M20.8153 1.05542L13.872 8L20.815 14.9447C20.9301 14.704 21 14.4379 21 14.1538V1.84607C21 1.56205 20.9303 1.29604 20.8153 1.05542Z" fill="black"/>
<path d="M0.18498 1.05518C0.0698496 1.29587 0 1.56192 0 1.84611V14.1538C0 14.4378 0.0697676 14.7039 0.184816 14.9445L7.12807 7.99996L0.18498 1.05518Z" fill="black"/>
<path d="M13.0023 8.8702L10.8943 10.8966C10.7741 11.0168 10.6167 11.0769 10.4593 11.0769C10.3019 11.0769 10.1444 11.0168 10.0243 10.8966L7.9983 8.87012L1.05493 15.8147C1.29561 15.93 1.56176 15.9999 1.84596 15.9999H19.1546C19.4387 15.9999 19.7047 15.9301 19.9453 15.8149L13.0023 8.8702Z" fill="black"/>
</svg>
