<svg width="71" height="86" viewBox="0 0 71 86" fill="none" xmlns="http://www.w3.org/2000/svg">
<path d="M34.08 68.8005C40.3436 68.8005 45.44 64.0232 45.44 58.1524C45.4346 55.9872 44.7374 53.8816 43.452 52.1482L35.3069 37.9842C35.1825 37.7668 35.0037 37.5861 34.7884 37.4603C34.573 37.3346 34.3288 37.2681 34.08 37.2676C33.8315 37.2683 33.5875 37.3349 33.3724 37.4607C33.1574 37.5864 32.9788 37.767 32.8545 37.9842L23.9241 53.3751C23.1313 54.8401 22.7172 56.4831 22.72 58.1524C22.72 64.0232 27.8164 68.8005 34.08 68.8005ZM26.3992 54.7812L34.08 41.546L41.0493 53.6575C41.0777 53.7048 41.1076 53.7521 41.1402 53.8008C42.0834 55.0522 42.5959 56.5801 42.6 58.1524C42.485 60.3219 41.5247 62.3576 39.9286 63.8153C38.3325 65.273 36.2301 66.0346 34.08 65.9338C31.9298 66.0346 29.8274 65.273 28.2314 63.8153C26.6353 62.3576 25.675 60.3219 25.56 58.1524C25.5566 56.9756 25.8451 55.8166 26.3992 54.7812Z" fill="black"/>
<path d="M21.3 8.60112H9.94C8.81018 8.60112 7.72663 9.05414 6.92772 9.86054C6.12882 10.6669 5.68 11.7606 5.68 12.9011V17.201H4.26C3.13018 17.201 2.04663 17.654 1.24773 18.4604C0.44882 19.2668 0 20.3605 0 21.5009V81.7001C0 82.8405 0.44882 83.9342 1.24773 84.7406C2.04663 85.547 3.13018 86 4.26 86H66.74C67.8698 86 68.9534 85.547 69.7523 84.7406C70.5512 83.9342 71 82.8405 71 81.7001V4.08045C70.9688 2.97006 70.503 1.91739 69.7046 1.15287C68.9062 0.388346 67.8402 -0.0257451 66.74 0.0012409H42.9962C42.2046 -0.00513037 41.4266 0.208898 40.7477 0.619804C40.0688 1.03071 39.5153 1.62258 39.148 2.33037L31.7824 17.201H25.56V12.9011C25.56 11.7606 25.1112 10.6669 24.3123 9.86054C23.5134 9.05414 22.4298 8.60112 21.3 8.60112ZM8.52 12.9011C8.52 12.5209 8.66961 12.1563 8.93591 11.8876C9.20221 11.6188 9.56339 11.4677 9.94 11.4677H21.3C21.6766 11.4677 22.0378 11.6188 22.3041 11.8876C22.5704 12.1563 22.72 12.5209 22.72 12.9011V17.201H8.52V12.9011ZM68.16 81.7001C68.16 82.0802 68.0104 82.4448 67.7441 82.7136C67.4778 82.9824 67.1166 83.1334 66.74 83.1334H4.26C3.88339 83.1334 3.52221 82.9824 3.25591 82.7136C2.98961 82.4448 2.84 82.0802 2.84 81.7001V74.5335H68.16V81.7001ZM68.16 71.6669H2.84V34.4007H68.16V71.6669ZM41.6884 3.61319C41.8179 3.38005 42.0084 3.18727 42.239 3.05585C42.4696 2.92443 42.7315 2.85941 42.9962 2.86787H66.74C67.087 2.8412 67.4305 2.95345 67.6963 3.18035C67.962 3.40725 68.1285 3.73058 68.16 4.08045V17.201H65.32V9.71623C65.2749 8.61917 64.8016 7.58468 64.0035 6.83866C63.2053 6.09264 62.1471 5.69569 61.06 5.73449H48.3269C47.5142 5.71918 46.7141 5.93813 46.0204 6.36565C45.3268 6.79318 44.7683 7.41155 44.4105 8.14819L40.2712 17.201H34.9576L41.6884 3.61319ZM62.48 9.71623V17.201H43.3995L46.9906 9.34787C47.1225 9.11022 47.3174 8.91441 47.5534 8.78249C47.7895 8.65056 48.0574 8.58775 48.3269 8.60112H61.06C61.393 8.569 61.7255 8.66659 61.9895 8.87391C62.2535 9.08122 62.429 9.38257 62.48 9.71623ZM68.16 20.0676V31.5341H2.84V25.8009H34.08V22.9342H2.84V21.5009C2.84 21.1208 2.98961 20.7562 3.25591 20.4874C3.52221 20.2186 3.88339 20.0676 4.26 20.0676H68.16Z" fill="black"/>
<path d="M15.62 65.9339H8.51999V58.7673H5.67999V68.8005H15.62V65.9339Z" fill="black"/>
<path d="M65.32 58.7673H62.48V65.9339H55.38V68.8005H65.32V58.7673Z" fill="black"/>
<path d="M39.76 58.7673H36.92V61.634H39.76V58.7673Z" fill="black"/>
</svg>
