<svg width="20" height="14" viewBox="0 0 20 14" fill="none" xmlns="http://www.w3.org/2000/svg">
<path fill-rule="evenodd" clip-rule="evenodd" d="M13.3684 2.22127C11.145 1.57768 8.85492 1.57768 6.6315 2.22127V4.14676C8.86201 3.35607 11.1382 3.35607 13.3684 4.14676V2.22127ZM10.0001 0C5.71284 0 1.67704 1.0046 0.434506 2.70193C-0.0481829 3.31937 -0.128764 3.85574 0.19303 4.3113C0.414558 4.69581 0.635825 5.08033 0.857089 5.46485C1.69202 6.53019 6.5399 3.97458 5.98687 2.76268C5.62466 2.10482 5.74539 1.75068 6.34882 1.57876C8.73208 1.23887 11.2678 1.23887 13.6511 1.57876C14.2548 1.75068 14.3753 2.10482 14.0133 2.76268C13.46 3.97459 18.3082 6.53019 19.1431 5.46485C19.3644 5.08033 19.5856 4.69581 19.8069 4.3113C20.1287 3.85574 20.0484 3.31937 19.5654 2.70193C18.3229 1.00461 14.2871 0 10.0001 0H10.0001ZM3.19389 14C2.09964 14 2.02614 13.8674 1.82299 13.2698C0.192497 8.47204 4.67319 4.10372 10.0001 4.04588C15.3268 4.10371 19.8074 8.47204 18.1772 13.2698C17.9741 13.8674 17.9003 14 16.8061 14H3.19391H3.19389ZM9.99983 5.17829C11.8043 5.17829 13.2674 6.51353 13.2674 8.15989C13.2674 9.8065 11.8043 11.1417 9.99983 11.1417C8.19585 11.1417 6.73255 9.80649 6.73255 8.15989C6.73255 6.51355 8.19584 5.17829 9.99983 5.17829Z" fill="white"/>
</svg>
