<svg width="84" height="86" viewBox="0 0 84 86" fill="none" xmlns="http://www.w3.org/2000/svg">
<path d="M77.829 28.055C79.164 26.779 80 24.987 80 23V7C80 3.14 76.859 0 73 0H7C3.141 0 0 3.14 0 7V23C0 26.579 2.701 29.534 6.17 29.946C4.836 31.222 4 33.014 4 35V51C4 52.986 4.835 54.778 6.169 56.053C2.7 56.467 0 59.422 0 63V79C0 82.859 3.14 86 7 86H73C76.859 86 80 82.859 80 79V63C80 61.014 79.164 59.223 77.831 57.947C81.3 57.534 84 54.579 84 51.001V35C84 31.422 81.299 28.467 77.829 28.055ZM78 17H2V13.001H78V17ZM4.939 2.456L10.043 7.56L11.457 6.146L7.312 2H12.421L17.982 7.561L19.396 6.147L15.249 2H20.358L25.919 7.561L27.333 6.147L23.187 2H28.296L33.856 7.561L35.27 6.147L31.124 2H36.233L41.794 7.561L43.208 6.147L39.062 2H44.171L49.732 7.561L51.146 6.147L46.999 2H52.108L57.669 7.561L59.083 6.147L54.937 2H60.046L65.606 7.561L67.02 6.147L62.874 2H67.983L73.544 7.561L74.958 6.147L70.812 2H73C75.757 2 78 4.243 78 7V11.001H2V7C2 4.979 3.211 3.244 4.939 2.456ZM2 23V19H78V23C78 25.757 75.757 28 73 28H70.914L74.958 23.957L73.544 22.543L68.086 28H62.977L67.02 23.957L65.606 22.543L60.148 28H55.039L59.083 23.957L57.669 22.543L52.211 28H47.102L51.146 23.957L49.732 22.543L44.273 28H39.164L43.208 23.957L41.794 22.543L36.336 28H31.227L35.27 23.957L33.856 22.543L28.398 28H23.289L27.333 23.957L25.919 22.543L20.461 28H15.352L19.396 23.957L17.982 22.543L12.523 28H7.414L11.458 23.957L10.044 22.543L5.006 27.581C3.24 26.808 2 25.048 2 23ZM8.94 30.458L14.043 35.561L15.457 34.147L11.311 30.001H16.42L21.981 35.561L23.395 34.147L19.249 30.001H24.358L29.918 35.561L31.332 34.147L27.186 30.001H32.295L37.855 35.561L39.269 34.147L35.123 30.001H40.232L45.793 35.561L47.207 34.147L43.061 30.001H48.17L53.731 35.561L55.145 34.147L50.999 30.001H56.108L61.669 35.561L63.083 34.147L58.937 30.001H64.046L69.606 35.561L71.02 34.147L66.874 30.001H71.983L77.544 35.561L78.958 34.147L74.812 30.001H77C79.757 30.001 82 32.244 82 35.001V39.002H6V35C6 32.98 7.211 31.245 8.94 30.458ZM82 41.002V45H6V41.002H82ZM2 69H78V72.999H2V69ZM73 84H70.914L74.958 79.957L73.544 78.543L68.086 84H62.977L67.02 79.957L65.606 78.543L60.148 84H55.039L59.083 79.957L57.669 78.543L52.211 84H47.102L51.146 79.957L49.732 78.543L44.273 84H39.164L43.208 79.957L41.794 78.543L36.336 84H31.227L35.27 79.957L33.856 78.543L28.398 84H23.289L27.333 79.957L25.919 78.543L20.461 84H15.352L19.396 79.957L17.982 78.543L12.523 84H7.414L11.458 79.957L10.044 78.543L5.006 83.58C3.24 82.808 2 81.048 2 79V74.999H78V79C78 81.757 75.757 84 73 84ZM78 63V67H2V63C2 60.979 3.211 59.244 4.94 58.456L10.044 63.56L11.458 62.146L7.312 58H10.981C10.988 58 10.994 58.001 11.001 58.001H12.423L17.983 63.561L19.397 62.147L15.251 58.001H20.36L25.92 63.561L27.334 62.147L23.188 58.001H28.297L33.856 63.561L35.27 62.147L31.125 58.001H36.234L41.794 63.561L43.208 62.147L39.062 58.001H44.171L49.731 63.561L51.145 62.147L47 58.001H52.109L57.669 63.561L59.083 62.147L54.937 58.001H60.046L65.605 63.561L67.019 62.147L62.874 58.001H67.983L73.543 63.561L74.957 62.147L70.811 58.001H73.008C75.762 58.006 78 60.246 78 63ZM77 56.001H74.914L78.958 51.957L77.544 50.543L72.087 56H66.978L71.02 51.957L69.606 50.543L64.149 56H59.04L63.083 51.957L61.669 50.543L56.212 56H51.103L55.146 51.957L53.732 50.543L48.274 56H43.165L47.207 51.957L45.793 50.543L40.337 56H35.228L39.27 51.957L37.856 50.543L32.399 56H27.29L31.333 51.957L29.919 50.543L24.462 56H19.353L23.396 51.957L21.982 50.543L16.524 56H11.415L15.457 51.957L14.043 50.543L9.006 55.58C7.24 54.809 6 53.049 6 51.001V47H82V51.001C82 53.758 79.757 56.001 77 56.001Z" fill="black"/>
</svg>
